PLOT

With help from his friends, a Memphis pimp in a mid-life crisis attempts to become a successful hip-hop emcee.
 
http://www.imdb.com/title/tt0410097/

Encoded By .......: BigPerm
Runtime ..........: 1h 56mn
File Size ........: 8.80 GB
Resolution .......: 1920 x 1072
IMDb URL .........: http://www.imdb.com/title/tt0410097/
Source ...........: BluRay
Genre ............: Crime,Drama,Music
Language .........: English
Subtitles ........: None
General
Complete name : Hustle and Flow 2005 BluRayRip 1080p x264 BigPerm LKRG\Hustle_and_Flow_BP-LKRG.mkv
Format : Matroska
File size : 8.80 GiB
Duration : 1h 56mn
Overall bit rate : 10.8 Mbps
Encoded date : UTC 2011-12-04 06:13:02
Writing application : mkvmerge v4.3.0 ('Escape from the Island') built on Sep 5 2010 10:30:51
Writing library : libebml v1.0.0 + libmatroska v1.0.0
Video
ID : 1
Format : AVC
Format/Info : Advanced Video Codec
Format profile : High@L4.0
Format settings, CABAC : Yes
Format settings, ReFrames : 4 frames
Format settings, GOP : M=4, N=32
Codec ID : V_MPEG4/ISO/AVC
Duration : 1h 56mn
Bit rate : 10.2 Mbps
Width : 1 920 pixels
Height : 1 072 pixels
Display aspect ratio : 16:9
Frame rate : 23.976 fps
Color space : YUV
Chroma subsampling : 4:2:0
Bit depth : 8 bits
Scan type : Progressive
Bits/(Pixel*Frame) : 0.206
Stream size : 8.26 GiB (94%)
Writing library : x264 core 105 r1724 b02df7b
Encoding settings : cabac=1 / ref=3 / deblock=1:-1:-1 / analyse=0x3:0x113 / me=hex / subme=7 / psy=1 / psy_rd=1.00:0.15 / mixed_ref=1 / me_range=16 / chroma_me=1 / trellis=1 / 8x8dct=1 / cqm=0 / deadzone=21,11 / fast_pskip=1 / chroma_qp_offset=-3 / threads=6 / sliced_threads=0 / nr=0 / decimate=1 / interlaced=0 / constrained_intra=0 / bframes=3 / b_pyramid=2 / b_adapt=1 / b_bias=0 / direct=1 / weightb=1 / open_gop=0 / weightp=2 / keyint=250 / keyint_min=23 / scenecut=40 / intra_refresh=0 / rc_lookahead=40 / rc=crf / mbtree=1 / crf=21.0 / qcomp=0.60 / qpmin=10 / qpmax=51 / qpstep=4 / ip_ratio=1.40 / aq=1:1.00
Audio
ID : 2
Format : AC-3
Format/Info : Audio Coding 3
Mode extension : CM (complete main)
Codec ID : A_AC3
Duration : 1h 56mn
Bit rate mode : Constant
Bit rate : 448 Kbps
Channel(s) : 6 channels
Channel positions : Front: L C R, Side: L R, LFE
Sampling rate : 48.0 KHz
Bit depth : 16 bits
Compression mode : Lossy
Stream size : 373 MiB (4%)
Language : English
